<?xml version="1.0" standalone="no"?>
<!DOCTYPE svg PUBLIC "-//W3C//DTD SVG 20010904//EN"
 "http://www.w3.org/TR/2001/REC-SVG-20010904/DTD/svg10.dtd">
<svg version="1.0" xmlns="http://www.w3.org/2000/svg"
 width="700.000000pt" height="700.000000pt" viewBox="0 0 700.000000 700.000000"
 preserveAspectRatio="xMidYMid meet">
<metadata>
Created by potrace 1.14, written by Peter Selinger 2001-2017
</metadata>
<g transform="translate(0.000000,700.000000) scale(0.100000,-0.100000)"
fill="#000000" stroke="none">
<path d="M3658 6995 c-2 -2 -30 -6 -63 -9 -108 -10 -138 -15 -306 -51 -9 -2
-65 -20 -124 -39 -231 -78 -492 -233 -674 -402 -44 -41 -45 -41 -78 -27 -68
28 -162 19 -251 -24 -92 -45 -159 -126 -233 -284 -27 -57 -76 -294 -94 -449
-19 -167 -29 -926 -14 -1077 5 -50 4 -53 -24 -64 -38 -16 -109 -88 -139 -141
-47 -84 -62 -154 -62 -283 -1 -66 3 -136 7 -155 14 -59 60 -133 105 -167 83
-63 167 -67 265 -13 31 17 58 27 60 23 3 -5 17 -44 32 -88 84 -245 232 -509
412 -733 141 -176 257 -288 481 -462 30 -24 31 -27 22 -65 -11 -42 -23 -112
-23 -132 0 -8 -16 -13 -41 -14 -23 0 -50 -2 -61 -4 -11 -2 -35 -7 -54 -10 -38
-7 -106 -38 -166 -77 -22 -14 -69 -35 -105 -48 -86 -30 -95 -35 -147 -83 -49
-45 -97 -131 -109 -193 -3 -21 -8 -47 -10 -58 -4 -23 7 -17 -104 -56 -523
-180 -869 -396 -959 -600 -22 -51 -30 -133 -46 -470 -7 -150 -14 -282 -20
-380 -3 -47 -7 -130 -10 -185 l-6 -100 31 -37 31 -38 2319 0 2318 0 32 36 31
36 -6 106 c-12 209 -14 248 -20 367 -3 66 -8 152 -10 190 -2 39 -7 117 -10
175 -11 210 -16 252 -32 293 -84 215 -396 425 -932 628 -129 48 -139 56 -140
111 -1 38 -37 116 -64 139 -35 31 -93 58 -134 65 -40 6 -83 28 -83 43 0 16
-65 74 -105 92 -25 12 -63 19 -102 19 -60 0 -63 1 -63 25 0 14 -1 27 -1 30 -1
2 -9 47 -19 99 l-17 95 46 33 c344 246 650 683 801 1143 18 55 34 101 35 103
1 1 28 -10 61 -25 212 -97 406 60 406 329 0 184 -84 354 -208 420 -31 16 -42
28 -39 39 34 106 70 281 83 404 9 87 9 399 0 480 -28 258 -113 542 -197 665
-40 59 -115 112 -186 132 -48 13 -160 15 -232 4 l-52 -8 44 85 c48 95 49 114
3 152 -58 49 -179 61 -299 30 -34 -9 -63 -14 -65 -12 -7 7 37 57 50 57 15 0
40 27 49 51 13 39 -71 166 -153 231 -121 95 -242 129 -467 133 -89 2 -163 2
-165 0z m297 -139 c66 -9 132 -29 185 -56 44 -22 140 -106 140 -121 0 -5 -15
-30 -34 -56 -54 -76 -120 -214 -119 -251 1 -41 27 -64 68 -58 17 2 68 20 114
41 46 20 109 43 140 51 63 15 131 18 131 6 0 -5 -30 -63 -66 -131 -72 -133
-75 -157 -28 -187 24 -16 30 -15 132 17 90 28 122 34 202 34 151 0 189 -28
258 -196 119 -289 160 -740 96 -1082 -20 -109 -64 -265 -78 -276 -6 -5 -21
-11 -34 -13 -20 -3 -26 6 -51 77 -83 235 -234 459 -471 695 -201 201 -290 280
-313 276 -64 -12 -74 -34 -58 -133 6 -37 13 -98 15 -135 4 -80 10 -77 -114
-48 -418 99 -751 309 -947 597 -75 111 -78 111 -236 35 -370 -177 -643 -426
-787 -717 -50 -100 -96 -213 -106 -257 -3 -13 -13 -68 -23 -123 l-19 -100 -2
85 c-7 289 0 676 15 815 22 205 34 276 70 400 52 178 144 286 257 301 38 5 55
2 101 -21 37 -19 62 -26 78 -21 13 3 56 37 95 74 216 207 506 365 789 432 107
26 156 33 290 46 39 3 71 7 72 8 5 4 194 -2 238 -8z m-910 -1072 c47 -65 170
-194 240 -251 122 -99 297 -198 471 -266 78 -31 272 -88 347 -103 157 -30 171
-30 197 -4 18 18 20 32 19 111 -1 49 2 93 5 96 8 9 223 -212 298 -306 116
-145 197 -280 248 -413 34 -88 60 -204 54 -236 -19 -96 96 -110 132 -16 13 35
23 46 48 53 94 25 190 -46 232 -172 27 -80 25 -219 -4 -278 -26 -54 -79 -87
-133 -84 -35 2 -103 32 -181 77 -31 19 -40 20 -62 10 -30 -14 -34 -22 -71
-157 -148 -544 -559 -1076 -994 -1290 -69 -34 -165 -69 -216 -79 -16 -4 -41
-9 -55 -11 -49 -11 -156 -5 -215 10 -140 37 -333 149 -507 294 -397 332 -715
868 -789 1331 -5 36 -12 76 -15 90 -9 42 -12 450 -4 531 47 460 303 809 781
1063 57 31 111 56 119 56 8 0 33 -25 55 -56z m-1124 -1348 c24 -22 27 -33 28
-98 1 -40 4 -84 6 -98 1 -14 6 -48 9 -75 4 -28 12 -76 18 -107 6 -32 8 -63 5
-71 -3 -8 -27 -28 -53 -45 -67 -45 -115 -44 -159 3 -43 48 -52 84 -49 195 2
105 19 165 66 241 50 82 85 96 129 55z m2110 -2003 c0 -21 2 -47 4 -58 2 -11
7 -42 11 -70 8 -68 48 -202 90 -302 39 -96 42 -89 -55 -151 -88 -57 -215 -102
-336 -119 -22 -3 -60 -16 -85 -30 -39 -21 -50 -35 -85 -109 -22 -47 -44 -89
-50 -93 -7 -6 -10 20 -11 76 0 77 -2 88 -23 104 -12 10 -39 21 -59 24 -176 29
-338 91 -429 163 l-52 42 26 57 c39 90 60 150 87 251 14 51 25 95 25 97 0 3 3
36 7 74 l6 69 67 -33 c128 -64 229 -95 333 -100 125 -7 304 37 446 110 37 19
70 34 75 35 4 0 7 -17 8 -37z m-1111 -239 c0 -13 -78 -198 -102 -242 -15 -29
-28 -57 -28 -63 0 -28 148 -143 254 -196 62 -31 182 -81 211 -87 6 -2 36 -8
68 -15 53 -12 57 -14 57 -41 l0 -28 -128 33 c-261 68 -423 156 -577 315 -27
29 -60 56 -73 61 -20 8 -82 -4 -182 -36 -33 -11 0 65 51 116 39 40 53 48 100
54 73 10 96 20 140 60 46 41 71 55 129 70 40 10 80 10 80 -1z m1388 -49 c16
-10 37 -36 48 -58 20 -43 24 -46 126 -66 57 -12 101 -44 111 -80 4 -16 0 -16
-32 -8 -53 14 -99 -11 -146 -78 -92 -134 -243 -224 -468 -279 -84 -20 -216
-42 -237 -38 -11 2 -8 18 5 36 8 11 34 22 62 27 86 15 107 20 181 45 84 28
158 64 222 107 58 40 150 127 150 142 0 6 -10 31 -22 56 -38 78 -86 204 -81
212 6 10 48 1 81 -18z m386 -395 c364 -118 746 -317 892 -465 103 -105 102
-98 119 -470 4 -77 9 -162 10 -190 8 -109 19 -354 19 -420 l1 -70 -1100 -1
c-605 0 -1105 3 -1110 7 -7 5 -10 190 -10 538 1 520 1 531 21 558 27 36 60 53
107 53 83 0 167 -64 167 -129 0 -11 -11 -44 -24 -73 -70 -154 -53 -210 76
-263 l73 -30 25 -76 c14 -42 33 -88 43 -102 20 -31 56 -35 79 -9 15 15 14 22
-7 77 -13 33 -31 82 -40 108 -21 60 -55 92 -120 113 -87 29 -89 34 -45 133 52
120 45 186 -30 262 -25 25 -69 57 -99 71 l-53 25 63 7 c82 9 227 41 329 71
164 49 347 168 429 278 29 40 36 44 60 37 14 -4 71 -22 125 -40z m-2068 -18
c162 -159 376 -263 667 -326 15 -4 27 -11 27 -16 0 -5 -35 -37 -77 -70 -156
-121 -218 -200 -230 -290 -12 -89 17 -139 104 -184 l52 -26 -29 -62 c-49 -103
-37 -188 25 -188 29 0 47 30 41 66 -4 18 6 51 29 99 54 112 48 133 -53 184
-78 40 -91 63 -68 124 23 62 72 115 176 191 l90 66 -2 -583 -3 -582 -1058 0
-1058 0 6 130 c4 71 9 157 10 190 12 249 16 318 20 375 2 36 7 117 10 180 5
94 11 124 31 167 63 131 308 287 684 436 190 75 484 172 531 176 8 0 42 -25
75 -57z"/>
<path d="M2323 6200 c-101 -22 -190 -145 -219 -302 -26 -146 -23 -172 22 -176
39 -4 50 11 59 73 10 81 23 131 50 192 31 69 66 109 111 123 35 12 49 37 39
69 -7 24 -22 29 -62 21z"/>
<path d="M3251 6014 c-28 -20 -27 -53 3 -79 219 -184 427 -335 464 -335 25 0
49 39 39 63 -3 8 -52 47 -109 85 -57 39 -157 115 -224 169 -66 55 -127 102
-136 105 -9 4 -25 0 -37 -8z"/>
<path d="M3861 5596 c-23 -28 -9 -70 29 -87 60 -29 137 -44 154 -30 34 28 19
79 -26 87 -7 1 -40 12 -72 23 -70 25 -70 25 -85 7z"/>
<path d="M5021 5223 c-15 -29 -24 -283 -10 -299 15 -18 53 -18 68 0 21 25 36
269 18 297 -15 24 -63 25 -76 2z"/>
</g>
</svg>
